<?xml version="1.0" standalone="no"?>
<!DOCTYPE svg PUBLIC "-//W3C//DTD SVG 20010904//EN"
 "http://www.w3.org/TR/2001/REC-SVG-20010904/DTD/svg10.dtd">
<svg version="1.0" xmlns="http://www.w3.org/2000/svg"
 width="1000.000000pt" height="1000.000000pt" viewBox="0 0 1000.000000 1000.000000"
 preserveAspectRatio="xMidYMid meet">

<g transform="translate(0.000000,1000.000000) scale(0.100000,-0.100000)"
fill="#000000" stroke="none">
<path d="M4249 7973 c37 -65 189 -327 336 -583 147 -256 275 -473 284 -483 14
-17 79 -18 1483 -15 807 2 1468 2 1468 1 0 -1 -45 -79 -100 -175 l-100 -173
-1270 -5 -1270 -5 271 -470 c149 -258 276 -476 281 -482 8 -10 278 -13 1287
-13 l1277 0 709 1228 c390 675 718 1242 728 1260 l19 32 -2736 0 -2735 0 68
-117z"/>
<path d="M3777 8058 c-24 -36 -657 -1140 -657 -1144 0 -2 304 -4 675 -4 371 0
675 2 675 4 0 3 -670 1159 -675 1164 -2 2 -10 -7 -18 -20z"/>
<path d="M3103 6537 c3 -7 123 -177 268 -377 144 -201 297 -413 338 -472 42
-59 79 -106 83 -105 9 2 688 935 695 954 4 10 -132 13 -692 13 -564 0 -696 -2
-692 -13z"/>
<path d="M2893 6501 c-6 -16 -471 -825 -1034 -1798 -563 -972 -1025 -1775
-1027 -1784 -2 -8 28 -68 65 -132 105 -177 507 -786 515 -779 19 18 1447 2514
1450 2534 3 20 10 13 47 -42 161 -236 864 -1210 870 -1206 5 3 210 290 457
638 l448 634 25 -47 c69 -126 1437 -2478 1441 -2479 8 0 563 962 563 975 0 12
-2010 3475 -2028 3494 -11 11 -18 7 -42 -26 -15 -22 -210 -299 -433 -616 -223
-317 -407 -576 -410 -576 -4 0 -606 834 -825 1144 -73 103 -69 99 -82 66z"/>
<path d="M5801 5288 c7 -13 52 -92 101 -177 49 -84 97 -170 106 -190 10 -20
218 -382 462 -804 363 -629 445 -765 454 -750 5 10 135 235 288 500 153 265
278 486 278 491 0 5 -127 220 -282 478 l-283 469 -568 3 -568 2 12 -22z"/>
<path d="M1748 2325 c-3 -4 13 -79 36 -168 l41 -162 66 -3 66 -3 18 93 c10 51
21 97 25 101 4 4 15 -38 25 -93 l17 -101 66 3 67 3 42 163 c46 179 46 176 -23
170 -43 -3 -38 9 -77 -178 l-13 -65 -18 100 c-27 146 -26 145 -85 145 -56 0
-51 8 -76 -120 -26 -134 -27 -134 -50 -5 l-21 120 -50 3 c-27 2 -53 0 -56 -3z"/>
<path d="M2297 2324 c-4 -4 -7 -81 -7 -171 l0 -164 122 3 122 3 3 33 4 32 -70
0 -71 0 0 35 0 35 54 0 c60 0 71 8 62 46 -6 22 -11 24 -61 24 -52 0 -55 1 -55
25 0 23 3 24 68 27 l67 3 0 35 0 35 -116 3 c-63 1 -118 -1 -122 -4z"/>
<path d="M2587 2324 c-4 -4 -7 -81 -7 -172 l0 -164 120 4 c136 5 156 14 167
81 6 40 -16 87 -42 87 -20 0 -19 5 10 34 38 38 30 92 -16 117 -24 12 -221 23
-232 13z m168 -84 c9 -28 -13 -52 -44 -48 -18 2 -26 9 -25 21 1 9 2 24 3 32 2
24 58 20 66 -5z m5 -119 c5 -11 10 -27 10 -36 0 -18 -36 -34 -61 -28 -18 5
-31 47 -22 70 8 20 61 16 73 -6z"/>
<path d="M3000 2160 l0 -173 109 5 c168 8 206 40 206 173 -1 121 -39 151 -209
162 l-106 6 0 -173z m181 81 c21 -17 24 -27 23 -90 -1 -40 -4 -74 -7 -77 -3
-3 -22 -6 -44 -7 l-38 -2 -3 98 c-3 97 -3 97 22 97 13 0 34 -9 47 -19z"/>
<path d="M3367 2324 c-4 -4 -7 -81 -7 -171 l0 -164 123 3 122 3 3 33 3 32 -70
0 -71 0 0 35 0 34 58 3 c56 3 57 3 57 33 0 30 0 30 -58 30 -55 0 -57 1 -57 27
0 26 2 27 68 30 l67 3 0 35 0 35 -116 3 c-63 1 -118 -1 -122 -4z"/>
<path d="M3980 2160 l0 -170 120 0 120 0 0 35 0 35 -65 0 -65 0 0 35 0 35 55
0 55 0 0 36 c0 31 -3 35 -22 34 -13 -1 -38 -2 -55 -1 -28 1 -33 5 -33 26 0 24
2 25 65 25 l65 0 0 40 0 40 -120 0 -120 0 0 -170z"/>
<path d="M4265 2318 c-3 -8 -4 -83 -3 -168 l3 -155 123 -3 122 -3 0 41 0 40
-70 0 -70 0 0 128 0 128 -50 3 c-35 1 -52 -2 -55 -11z"/>
<path d="M4634 2319 c-101 -29 -138 -198 -63 -284 28 -31 46 -39 113 -49 38
-5 110 14 134 37 36 32 52 78 52 145 0 125 -102 190 -236 151z m110 -81 c18
-25 21 -113 6 -152 -8 -21 -16 -26 -44 -26 -45 0 -56 20 -56 100 0 34 5 70 10
81 15 27 64 25 84 -3z"/>
<path d="M4920 2161 l0 -172 53 3 52 3 3 53 c3 51 4 52 35 52 71 0 108 12 121
39 19 37 24 80 14 118 -13 50 -54 66 -175 71 l-103 4 0 -171z m169 85 c7 -8
11 -27 9 -43 -2 -23 -8 -29 -35 -31 -33 -3 -33 -3 -33 42 0 42 2 46 24 46 13
0 29 -6 35 -14z"/>
<path d="M5240 2159 l0 -169 120 0 120 0 0 35 0 35 -64 0 c-63 0 -64 0 -68 30
-3 17 -2 32 0 35 3 3 29 5 59 5 l53 0 0 35 0 35 -55 0 c-52 0 -55 1 -55 25 0
24 2 25 65 25 l65 0 0 40 0 41 -120 -2 -120 -1 0 -169z"/>
<path d="M5543 2324 c-10 -4 -13 -48 -13 -170 l0 -164 50 0 50 0 0 59 c0 52 3
60 22 67 21 6 48 -16 48 -40 0 -6 5 -28 11 -48 10 -38 10 -38 65 -38 54 0 54
0 48 28 -21 84 -32 108 -52 118 -22 11 -22 12 -4 16 35 10 56 54 46 95 -15 60
-48 76 -161 79 -54 2 -104 1 -110 -2z m165 -98 c4 -33 -10 -46 -50 -46 -26 0
-28 3 -28 41 l0 40 38 -3 c33 -3 37 -6 40 -32z"/>
<path d="M3630 2310 c0 -19 81 -305 89 -313 4 -4 39 -7 77 -5 l68 3 43 155
c23 85 42 158 43 163 0 4 -24 7 -53 7 l-53 0 -23 -117 c-13 -65 -26 -122 -29
-128 -3 -5 -17 47 -32 115 l-25 125 -53 3 c-32 2 -52 -1 -52 -8z"/>
</g>
</svg>
