<svg xmlns="http://www.w3.org/2000/svg" version="1.1" xmlns:xlink="http://www.w3.org/1999/xlink" xmlns:svgjs="http://svgjs.dev/svgjs" width="1000" height="623" viewBox="0 0 1000 623"><g transform="matrix(1,0,0,1,-0.6060606060606233,0.2522267206477409)"><svg viewBox="0 0 396 247" data-background-color="#ffffff" preserveAspectRatio="xMidYMid meet" height="623" width="1000" xmlns="http://www.w3.org/2000/svg" xmlns:xlink="http://www.w3.org/1999/xlink"><g id="tight-bounds" transform="matrix(1,0,0,1,0.2400000000000091,-0.09999999999999432)"><svg viewBox="0 0 395.52 247.2" height="247.2" width="395.52"><g><svg></svg></g><g><svg viewBox="0 0 395.52 247.2" height="247.2" width="395.52"><g transform="matrix(1,0,0,1,89.75519726292518,47.215199999999996)"><svg viewBox="0 0 216.00960547414962 152.7696" height="152.7696" width="216.00960547414962"><g><svg viewBox="0 0 216.00960547414962 152.7696" height="152.7696" width="216.00960547414962"><g><svg viewBox="0 0 244.43135999999998 172.87046570308542" height="152.7696" width="216.00960547414962"><g><svg viewBox="0 0 244.43135999999998 172.87046570308542" height="172.87046570308542" width="244.43135999999998"><g><svg viewBox="0 0 244.43135999999998 172.87046570308542" height="172.87046570308542" width="244.43135999999998"><g><svg viewBox="0 0 244.43135999999998 112.52323449814125" height="112.52323449814125" width="244.43135999999998"><g transform="matrix(1,0,0,1,0,0)"><svg width="244.43135999999998" viewBox="1.0499999523162842 -37.150001525878906 80.68999481201172 37.150001525878906" height="112.52323449814125" data-palette-color="#3d3839"><path d="M23.6 0L20.55 0 17.85-10.15 6.7-10.15 4.05 0 1.05 0 10.5-34.4 14.15-34.4 23.6 0ZM17.1-12.75L12.4-30.4 12.15-30.4 7.45-12.75 17.1-12.75ZM53.3 0L53.3-15.2Q53.3-18.95 52.97-20.6 52.65-22.25 51.72-22.8 50.8-23.35 48.75-23.35L48.75-23.35Q46.25-23.35 45.12-22.2 44-21.05 43.72-19.07 43.45-17.1 43.45-13.2L43.45-13.2 43.45 0 40.65 0 40.65-15.2Q40.65-18.95 40.32-20.6 40-22.25 39.1-22.8 38.2-23.35 36.1-23.35L36.1-23.35Q33.65-23.35 32.5-22.13 31.35-20.9 31.07-18.9 30.8-16.9 30.8-13.2L30.8-13.2 30.8 0 28 0 28-25.5 30.4-25.5 30.6-21.85 30.85-21.85Q31.4-23.75 32.8-24.83 34.2-25.9 37-25.9L37-25.9Q39.85-25.9 41.2-24.98 42.55-24.05 43.05-21.85L43.05-21.85 43.3-21.85Q44.5-25.9 49.6-25.9L49.6-25.9Q52.35-25.9 53.72-24.93 55.1-23.95 55.6-21.9 56.1-19.85 56.1-16.1L56.1-16.1 56.1 0 53.3 0ZM65.59-33.4L62.6-33.4 62.6-37.15 65.59-37.15 65.59-33.4ZM65.5 0L62.7 0 62.7-25.5 65.5-25.5 65.5 0ZM72.19 0L72.19-25.5 74.59-25.5 74.79-20.6 75.04-20.6Q75.69-23.65 77.37-24.78 79.04-25.9 81.74-25.9L81.74-25.9 81.74-23.05Q79.09-23.05 77.62-21.88 76.14-20.7 75.57-18.43 74.99-16.15 74.99-12.45L74.99-12.45 74.99 0 72.19 0Z" opacity="1" transform="matrix(1,0,0,1,0,0)" fill="#3d3839" class="undefined-text-0" data-fill-palette-color="primary" id="text-0"></path></svg></g></svg></g><g transform="matrix(1,0,0,1,0,139.08726960552445)"><svg viewBox="0 0 244.43135999999998 33.78319609756098" height="33.78319609756098" width="244.43135999999998"><g transform="matrix(1,0,0,1,0,0)"><svg width="244.43135999999998" viewBox="0.9500000476837158 -35.349998474121094 325.91998291015625 45.04999923706055" height="33.78319609756098" data-palette-color="#dd5850"><path d="M16.75-8.3L14.45 0 8.9 0 0.95-25.35 6.15-25.35 8.5-16.95Q9.65-12.95 10.45-9.9 11.25-6.85 11.45-5.8L11.45-5.8 11.65-4.75Q12.3-7.9 14.95-17L14.95-17 17.4-25.35 22.15-25.35 24.65-17Q25.85-12.85 26.7-9.78 27.55-6.7 27.8-5.7L27.8-5.7 28-4.7Q28.6-7.65 31.4-17L31.4-17 33.9-25.35 38.85-25.35 30.8 0 25.2 0 22.85-8.3Q21.8-12.1 21.03-15.03 20.25-17.95 20-19L20-19 19.8-20Q19.1-16.75 16.75-8.3L16.75-8.3ZM62.15-5.75L62.15-1.35Q59.35 0.25 54.75 0.25L54.75 0.25Q48.85 0.25 45.35-3.3 41.85-6.85 41.85-12.6L41.85-12.6Q41.85-18.7 45.05-22.18 48.25-25.65 53.2-25.65L53.2-25.65Q58.05-25.65 60.9-22.63 63.75-19.6 63.75-13.9L63.75-13.9Q63.75-12.35 63.45-10.65L63.45-10.65 46.8-10.65Q47.3-7.35 49.6-5.6 51.9-3.85 55.4-3.85L55.4-3.85Q59.45-3.85 62.15-5.75L62.15-5.75ZM53.3-21.6L53.3-21.6Q50.8-21.6 49-19.78 47.2-17.95 46.75-14.5L46.75-14.5 59-14.5 59-15.4Q58.9-18.25 57.45-19.93 56-21.6 53.3-21.6ZM74.55-3.85L74.55 0 69.6 0 69.6-35.35 74.55-35.35 74.55-21.5Q77.25-25.7 82.2-25.7L82.2-25.7Q87-25.7 90.05-22.1 93.1-18.5 93.1-12.55L93.1-12.55Q93.1-7.2 90.2-3.43 87.3 0.35 82.25 0.35 77.2 0.35 74.55-3.85L74.55-3.85ZM74.55-12.85L74.55-12.85Q74.55-8.35 76.55-6.15 78.55-3.95 81.45-3.95L81.45-3.95Q84.25-3.95 86.15-6.33 88.05-8.7 88.05-12.45L88.05-12.45Q88.05-16.75 86.15-19.07 84.25-21.4 81.3-21.4L81.3-21.4Q78.7-21.4 76.62-19.3 74.55-17.2 74.55-12.85ZM114.54-12.45L114.54-12.45Q114.54-8.65 116.42-6.3 118.29-3.95 121.14-3.95L121.14-3.95Q124.04-3.95 126.04-6.15 128.04-8.35 128.04-12.85L128.04-12.85Q128.04-17.2 125.97-19.3 123.89-21.4 121.29-21.4L121.29-21.4Q118.34-21.4 116.44-19.07 114.54-16.75 114.54-12.45ZM132.99-35.35L132.99 0 128.04 0 128.04-3.85Q125.39 0.35 120.29 0.35L120.29 0.35Q115.29 0.35 112.39-3.43 109.49-7.2 109.49-12.55L109.49-12.55Q109.49-18.5 112.54-22.1 115.59-25.7 120.39-25.7L120.39-25.7Q125.34-25.7 128.04-21.5L128.04-21.5 128.04-35.35 132.99-35.35ZM158.79-5.75L158.79-1.35Q155.99 0.25 151.39 0.25L151.39 0.25Q145.49 0.25 141.99-3.3 138.49-6.85 138.49-12.6L138.49-12.6Q138.49-18.7 141.69-22.18 144.89-25.65 149.84-25.65L149.84-25.65Q154.69-25.65 157.54-22.63 160.39-19.6 160.39-13.9L160.39-13.9Q160.39-12.35 160.09-10.65L160.09-10.65 143.44-10.65Q143.94-7.35 146.24-5.6 148.54-3.85 152.04-3.85L152.04-3.85Q156.09-3.85 158.79-5.75L158.79-5.75ZM149.94-21.6L149.94-21.6Q147.44-21.6 145.64-19.78 143.84-17.95 143.39-14.5L143.39-14.5 155.64-14.5 155.64-15.4Q155.54-18.25 154.09-19.93 152.64-21.6 149.94-21.6ZM187.44-25.35L178.24 0 172.63 0 163.63-25.35 168.78-25.35 172.24-14.65Q173.44-10.95 174.26-8.25 175.09-5.55 175.28-4.7L175.28-4.7 175.49-3.85Q175.94-6.3 178.78-14.65L178.78-14.65 182.34-25.35 187.44-25.35ZM210.73-5.75L210.73-1.35Q207.93 0.25 203.33 0.25L203.33 0.25Q197.43 0.25 193.93-3.3 190.43-6.85 190.43-12.6L190.43-12.6Q190.43-18.7 193.63-22.18 196.83-25.65 201.78-25.65L201.78-25.65Q206.63-25.65 209.48-22.63 212.33-19.6 212.33-13.9L212.33-13.9Q212.33-12.35 212.03-10.65L212.03-10.65 195.38-10.65Q195.88-7.35 198.18-5.6 200.48-3.85 203.98-3.85L203.98-3.85Q208.03-3.85 210.73-5.75L210.73-5.75ZM201.88-21.6L201.88-21.6Q199.38-21.6 197.58-19.78 195.78-17.95 195.33-14.5L195.33-14.5 207.58-14.5 207.58-15.4Q207.48-18.25 206.03-19.93 204.58-21.6 201.88-21.6ZM223.23-35.35L223.23 0 218.28 0 218.28-35.35 223.23-35.35ZM249.88-22.03Q253.03-18.35 253.03-12.65 253.03-6.95 249.8-3.25 246.58 0.45 240.93 0.45L240.93 0.45Q235.33 0.45 232.13-3.2 228.93-6.85 228.93-12.45L228.93-12.45Q228.93-18.15 232.23-21.93 235.53-25.7 240.93-25.7L240.93-25.7Q246.73-25.7 249.88-22.03ZM234.03-12.6L234.03-12.6Q234.03-8.85 235.88-6.28 237.73-3.7 240.93-3.7L240.93-3.7Q244.33-3.7 246.1-6.2 247.88-8.7 247.88-12.55L247.88-12.55Q247.88-16.5 246.18-19.03 244.48-21.55 240.88-21.55L240.88-21.55Q237.63-21.55 235.83-18.98 234.03-16.4 234.03-12.6ZM263.43-3.85L263.43 9.7 258.52 9.7 258.52-25.35 263.43-25.35 263.43-21.45Q266.02-25.7 271.22-25.7L271.22-25.7Q276.22-25.7 279.13-22.08 282.02-18.45 282.02-12.85L282.02-12.85Q282.02-7.1 279.05-3.38 276.07 0.35 271.13 0.35L271.13 0.35Q266.07 0.35 263.43-3.85L263.43-3.85ZM263.43-12.75L263.43-12.75Q263.43-8.35 265.5-6.15 267.57-3.95 270.22-3.95L270.22-3.95Q273.18-3.95 275.07-6.28 276.97-8.6 276.97-12.8L276.97-12.8Q276.97-16.75 275.13-19.07 273.27-21.4 270.43-21.4 267.57-21.4 265.5-19.33 263.43-17.25 263.43-12.75ZM306.42-5.75L306.42-1.35Q303.62 0.25 299.02 0.25L299.02 0.25Q293.12 0.25 289.62-3.3 286.12-6.85 286.12-12.6L286.12-12.6Q286.12-18.7 289.32-22.18 292.52-25.65 297.47-25.65L297.47-25.65Q302.32-25.65 305.17-22.63 308.02-19.6 308.02-13.9L308.02-13.9Q308.02-12.35 307.72-10.65L307.72-10.65 291.07-10.65Q291.57-7.35 293.87-5.6 296.17-3.85 299.67-3.85L299.67-3.85Q303.72-3.85 306.42-5.75L306.42-5.75ZM297.57-21.6L297.57-21.6Q295.07-21.6 293.27-19.78 291.47-17.95 291.02-14.5L291.02-14.5 303.27-14.5 303.27-15.4Q303.17-18.25 301.72-19.93 300.27-21.6 297.57-21.6ZM318.67-13.5L318.67 0 313.77 0 313.77-25.35 318.67-25.35 318.67-20.9Q320.52-25.6 325.32-25.6L325.32-25.6Q326.02-25.6 326.87-25.45L326.87-25.45 326.87-20.65Q325.82-21.1 324.52-21.1L324.52-21.1Q321.97-21.1 320.32-18.85 318.67-16.6 318.67-13.5L318.67-13.5Z" opacity="1" transform="matrix(1,0,0,1,0,0)" fill="#dd5850" class="undefined-text-1" data-fill-palette-color="secondary" id="text-1"></path></svg></g></svg></g></svg></g></svg></g></svg></g></svg></g></svg></g><g><path d="M0 123.6c0-68.262 55.338-123.6 123.6-123.6 33.761 0 64.361 13.536 86.668 35.478l-6.522 0c-21.16-19.256-49.282-30.994-80.146-30.994-65.786 0-119.116 53.33-119.116 119.116 0 65.786 53.33 119.116 119.116 119.116 30.864 0 58.986-11.738 80.146-30.994h6.522c-22.307 21.941-52.907 35.478-86.668 35.478-68.262 0-123.6-55.338-123.6-123.6z" fill="#3d3839" stroke="transparent" data-fill-palette-color="tertiary"></path></g></svg></g><defs></defs></svg><rect width="395.52" height="247.2" fill="none" stroke="none" visibility="hidden"></rect></g></svg></g></svg>